# xmcd
#
# Track frame offsets:
#	150
#	20976
#	32703
#	47244
#	61466
#	80024
#	89503
#	102561
#	127302
#	156172
#	173813
#	189398
#	220337
#	235243
#	245271
#	262969
#
# Disc length: 3719 seconds
#
# Revision: 0
# Processed by: cddbd v1.5.2PL0 Copyright (c) Steve Scherf et al.
# Submitted via: Collectorz.com Music Collector 1.0
#
DISCID=ea0e8510
DTITLE=Jeffrey Lee Pierce - Ramblin' Jeffrey Lee and Cypress Grove with Willie Love
DYEAR=1992
DGENRE=90s  - Alternative  - Blues
TTITLE0=Going Down
TTITLE1=Pony Blues
TTITLE2=Future Blues
TTITLE3=Long, Long Gone
TTITLE4=Bad Luck and Trouble
TTITLE5=Alabama Blues
TTITLE6=Good Times
TTITLE7=Stranger In My Heart
TTITLE8=Go Tell The Mountain
TTITLE9=Moanin' In The Moonlight
TTITLE10=Hard Time Killin' Floor Blues
TTITLE11=Going Down [full version]
TTITLE12=L.A. County Jail Blues
TTITLE13=Mississippi Bottom Blues
TTITLE14=In My Room
TTITLE15=Ommie Wise [demo]
EXTD=
EXTT0=
EXTT1=
EXTT2=
EXTT3=
EXTT4=
EXTT5=
EXTT6=
EXTT7=
EXTT8=
EXTT9=
EXTT10=
EXTT11=
EXTT12=
EXTT13=
EXTT14=
EXTT15=
PLAYORDER=
